<mxfile host="app.diagrams.net" agent="Mozilla/5.0 (X11; Linux x86_64) AppleWebKit/537.36 (KHTML, like Gecko) Chrome/131.0.0.0 Safari/537.36 Edg/131.0.0.0" version="26.0.6">
  <diagram name="第 1 页" id="slVTdA2KLXwG89uPIDer">
    <mxGraphModel dx="1392" dy="1972" grid="1" gridSize="10" guides="1" tooltips="1" connect="1" arrows="1" fold="1" page="1" pageScale="1" pageWidth="827" pageHeight="1169" math="0" shadow="0">
      <root>
        <mxCell id="0" />
        <mxCell id="1" parent="0" />
        <mxCell id="TVwda_yAYKdPDHhmBfI9-2" value="raw data" style="edgeStyle=orthogonalEdgeStyle;rounded=0;orthogonalLoop=1;jettySize=auto;html=1;entryX=0.5;entryY=0;entryDx=0;entryDy=0;" edge="1" parent="1" target="TVwda_yAYKdPDHhmBfI9-1">
          <mxGeometry relative="1" as="geometry">
            <mxPoint x="140" y="280" as="sourcePoint" />
          </mxGeometry>
        </mxCell>
        <mxCell id="TVwda_yAYKdPDHhmBfI9-6" style="edgeStyle=orthogonalEdgeStyle;rounded=0;orthogonalLoop=1;jettySize=auto;html=1;exitX=0.5;exitY=1;exitDx=0;exitDy=0;entryX=0.5;entryY=0;entryDx=0;entryDy=0;" edge="1" parent="1" source="TVwda_yAYKdPDHhmBfI9-1" target="TVwda_yAYKdPDHhmBfI9-3">
          <mxGeometry relative="1" as="geometry" />
        </mxCell>
        <mxCell id="TVwda_yAYKdPDHhmBfI9-69" style="edgeStyle=orthogonalEdgeStyle;rounded=0;orthogonalLoop=1;jettySize=auto;html=1;exitX=0.5;exitY=1;exitDx=0;exitDy=0;entryX=0.5;entryY=0;entryDx=0;entryDy=0;" edge="1" parent="1" source="TVwda_yAYKdPDHhmBfI9-1" target="TVwda_yAYKdPDHhmBfI9-4">
          <mxGeometry relative="1" as="geometry" />
        </mxCell>
        <mxCell id="TVwda_yAYKdPDHhmBfI9-1" value="FORK" style="rounded=0;whiteSpace=wrap;html=1;" vertex="1" parent="1">
          <mxGeometry x="100" y="360" width="80" height="40" as="geometry" />
        </mxCell>
        <mxCell id="TVwda_yAYKdPDHhmBfI9-8" value="raw data" style="edgeStyle=orthogonalEdgeStyle;rounded=0;orthogonalLoop=1;jettySize=auto;html=1;exitX=0.5;exitY=1;exitDx=0;exitDy=0;entryX=0.5;entryY=0;entryDx=0;entryDy=0;" edge="1" parent="1" source="TVwda_yAYKdPDHhmBfI9-3" target="TVwda_yAYKdPDHhmBfI9-7">
          <mxGeometry relative="1" as="geometry" />
        </mxCell>
        <mxCell id="TVwda_yAYKdPDHhmBfI9-3" value="FIFO" style="rounded=0;whiteSpace=wrap;html=1;" vertex="1" parent="1">
          <mxGeometry x="40" y="440" width="40" height="80" as="geometry" />
        </mxCell>
        <mxCell id="TVwda_yAYKdPDHhmBfI9-70" value="carrier" style="edgeStyle=orthogonalEdgeStyle;rounded=0;orthogonalLoop=1;jettySize=auto;html=1;exitX=0.5;exitY=1;exitDx=0;exitDy=0;entryX=0.5;entryY=0;entryDx=0;entryDy=0;" edge="1" parent="1" source="TVwda_yAYKdPDHhmBfI9-4" target="TVwda_yAYKdPDHhmBfI9-7">
          <mxGeometry relative="1" as="geometry" />
        </mxCell>
        <mxCell id="TVwda_yAYKdPDHhmBfI9-4" value="DDS" style="rounded=0;whiteSpace=wrap;html=1;" vertex="1" parent="1">
          <mxGeometry x="200" y="440" width="40" height="80" as="geometry" />
        </mxCell>
        <mxCell id="TVwda_yAYKdPDHhmBfI9-11" style="edgeStyle=orthogonalEdgeStyle;rounded=0;orthogonalLoop=1;jettySize=auto;html=1;exitX=0.5;exitY=1;exitDx=0;exitDy=0;entryX=0.5;entryY=0;entryDx=0;entryDy=0;" edge="1" parent="1" source="TVwda_yAYKdPDHhmBfI9-7" target="TVwda_yAYKdPDHhmBfI9-16">
          <mxGeometry relative="1" as="geometry">
            <mxPoint x="140" y="640" as="targetPoint" />
          </mxGeometry>
        </mxCell>
        <mxCell id="TVwda_yAYKdPDHhmBfI9-7" value="JOIN" style="rounded=0;whiteSpace=wrap;html=1;" vertex="1" parent="1">
          <mxGeometry x="100" y="560" width="80" height="40" as="geometry" />
        </mxCell>
        <mxCell id="TVwda_yAYKdPDHhmBfI9-20" style="edgeStyle=orthogonalEdgeStyle;rounded=0;orthogonalLoop=1;jettySize=auto;html=1;exitX=0.5;exitY=1;exitDx=0;exitDy=0;entryX=0.5;entryY=0;entryDx=0;entryDy=0;" edge="1" parent="1" source="TVwda_yAYKdPDHhmBfI9-15" target="TVwda_yAYKdPDHhmBfI9-19">
          <mxGeometry relative="1" as="geometry" />
        </mxCell>
        <mxCell id="TVwda_yAYKdPDHhmBfI9-15" value="FIR" style="rounded=0;whiteSpace=wrap;html=1;" vertex="1" parent="1">
          <mxGeometry x="120" y="760" width="40" height="80" as="geometry" />
        </mxCell>
        <mxCell id="TVwda_yAYKdPDHhmBfI9-17" style="edgeStyle=orthogonalEdgeStyle;rounded=0;orthogonalLoop=1;jettySize=auto;html=1;exitX=0.5;exitY=1;exitDx=0;exitDy=0;entryX=0.5;entryY=0;entryDx=0;entryDy=0;" edge="1" parent="1" source="TVwda_yAYKdPDHhmBfI9-16" target="TVwda_yAYKdPDHhmBfI9-15">
          <mxGeometry relative="1" as="geometry" />
        </mxCell>
        <mxCell id="TVwda_yAYKdPDHhmBfI9-16" value="向量化&lt;br&gt;合并" style="rounded=0;whiteSpace=wrap;html=1;" vertex="1" parent="1">
          <mxGeometry x="120" y="640" width="40" height="80" as="geometry" />
        </mxCell>
        <mxCell id="TVwda_yAYKdPDHhmBfI9-23" style="edgeStyle=orthogonalEdgeStyle;rounded=0;orthogonalLoop=1;jettySize=auto;html=1;exitX=0.5;exitY=1;exitDx=0;exitDy=0;entryX=0.5;entryY=0;entryDx=0;entryDy=0;" edge="1" parent="1" source="TVwda_yAYKdPDHhmBfI9-19" target="TVwda_yAYKdPDHhmBfI9-22">
          <mxGeometry relative="1" as="geometry" />
        </mxCell>
        <mxCell id="TVwda_yAYKdPDHhmBfI9-19" value="COR&lt;br&gt;DIC" style="rounded=0;whiteSpace=wrap;html=1;" vertex="1" parent="1">
          <mxGeometry x="120" y="880" width="40" height="80" as="geometry" />
        </mxCell>
        <mxCell id="TVwda_yAYKdPDHhmBfI9-26" value="phase" style="edgeStyle=orthogonalEdgeStyle;rounded=0;orthogonalLoop=1;jettySize=auto;html=1;exitX=0.75;exitY=1;exitDx=0;exitDy=0;entryX=0.5;entryY=1;entryDx=0;entryDy=0;" edge="1" parent="1" source="TVwda_yAYKdPDHhmBfI9-22" target="TVwda_yAYKdPDHhmBfI9-24">
          <mxGeometry relative="1" as="geometry" />
        </mxCell>
        <mxCell id="TVwda_yAYKdPDHhmBfI9-48" value="magnitude" style="edgeStyle=orthogonalEdgeStyle;rounded=0;orthogonalLoop=1;jettySize=auto;html=1;exitX=0.25;exitY=1;exitDx=0;exitDy=0;entryX=0.5;entryY=1;entryDx=0;entryDy=0;" edge="1" parent="1" source="TVwda_yAYKdPDHhmBfI9-22" target="TVwda_yAYKdPDHhmBfI9-40">
          <mxGeometry relative="1" as="geometry">
            <Array as="points">
              <mxPoint x="120" y="1080" />
              <mxPoint x="620" y="1080" />
            </Array>
          </mxGeometry>
        </mxCell>
        <mxCell id="TVwda_yAYKdPDHhmBfI9-22" value="FORK" style="rounded=0;whiteSpace=wrap;html=1;" vertex="1" parent="1">
          <mxGeometry x="100" y="1000" width="80" height="40" as="geometry" />
        </mxCell>
        <mxCell id="TVwda_yAYKdPDHhmBfI9-30" style="edgeStyle=orthogonalEdgeStyle;rounded=0;orthogonalLoop=1;jettySize=auto;html=1;exitX=0.5;exitY=0;exitDx=0;exitDy=0;entryX=0.5;entryY=1;entryDx=0;entryDy=0;" edge="1" parent="1" source="TVwda_yAYKdPDHhmBfI9-24" target="TVwda_yAYKdPDHhmBfI9-28">
          <mxGeometry relative="1" as="geometry" />
        </mxCell>
        <mxCell id="TVwda_yAYKdPDHhmBfI9-31" style="edgeStyle=orthogonalEdgeStyle;rounded=0;orthogonalLoop=1;jettySize=auto;html=1;exitX=0.5;exitY=0;exitDx=0;exitDy=0;entryX=0.5;entryY=1;entryDx=0;entryDy=0;" edge="1" parent="1" source="TVwda_yAYKdPDHhmBfI9-24" target="TVwda_yAYKdPDHhmBfI9-27">
          <mxGeometry relative="1" as="geometry" />
        </mxCell>
        <mxCell id="TVwda_yAYKdPDHhmBfI9-24" value="FORK" style="rounded=0;whiteSpace=wrap;html=1;" vertex="1" parent="1">
          <mxGeometry x="360" y="1000" width="80" height="40" as="geometry" />
        </mxCell>
        <mxCell id="TVwda_yAYKdPDHhmBfI9-33" style="edgeStyle=orthogonalEdgeStyle;rounded=0;orthogonalLoop=1;jettySize=auto;html=1;exitX=0.5;exitY=0;exitDx=0;exitDy=0;entryX=0.5;entryY=1;entryDx=0;entryDy=0;" edge="1" parent="1" source="TVwda_yAYKdPDHhmBfI9-27" target="TVwda_yAYKdPDHhmBfI9-29">
          <mxGeometry relative="1" as="geometry" />
        </mxCell>
        <mxCell id="TVwda_yAYKdPDHhmBfI9-27" value="DE&lt;br&gt;LAY" style="rounded=0;whiteSpace=wrap;html=1;" vertex="1" parent="1">
          <mxGeometry x="440" y="880" width="40" height="80" as="geometry" />
        </mxCell>
        <mxCell id="TVwda_yAYKdPDHhmBfI9-32" style="edgeStyle=orthogonalEdgeStyle;rounded=0;orthogonalLoop=1;jettySize=auto;html=1;exitX=0.5;exitY=0;exitDx=0;exitDy=0;entryX=0.5;entryY=1;entryDx=0;entryDy=0;" edge="1" parent="1" source="TVwda_yAYKdPDHhmBfI9-28" target="TVwda_yAYKdPDHhmBfI9-29">
          <mxGeometry relative="1" as="geometry" />
        </mxCell>
        <mxCell id="TVwda_yAYKdPDHhmBfI9-28" value="FIFO" style="rounded=0;whiteSpace=wrap;html=1;" vertex="1" parent="1">
          <mxGeometry x="320" y="880" width="40" height="80" as="geometry" />
        </mxCell>
        <mxCell id="TVwda_yAYKdPDHhmBfI9-36" style="edgeStyle=orthogonalEdgeStyle;rounded=0;orthogonalLoop=1;jettySize=auto;html=1;exitX=0.5;exitY=0;exitDx=0;exitDy=0;entryX=0.5;entryY=1;entryDx=0;entryDy=0;" edge="1" parent="1" source="TVwda_yAYKdPDHhmBfI9-29" target="TVwda_yAYKdPDHhmBfI9-35">
          <mxGeometry relative="1" as="geometry" />
        </mxCell>
        <mxCell id="TVwda_yAYKdPDHhmBfI9-29" value="JOIN" style="rounded=0;whiteSpace=wrap;html=1;" vertex="1" parent="1">
          <mxGeometry x="360" y="800" width="80" height="40" as="geometry" />
        </mxCell>
        <mxCell id="TVwda_yAYKdPDHhmBfI9-81" style="edgeStyle=orthogonalEdgeStyle;rounded=0;orthogonalLoop=1;jettySize=auto;html=1;exitX=0.5;exitY=0;exitDx=0;exitDy=0;entryX=0.5;entryY=1;entryDx=0;entryDy=0;" edge="1" parent="1" source="TVwda_yAYKdPDHhmBfI9-35" target="TVwda_yAYKdPDHhmBfI9-73">
          <mxGeometry relative="1" as="geometry" />
        </mxCell>
        <mxCell id="TVwda_yAYKdPDHhmBfI9-35" value="空间&lt;br&gt;差分" style="rounded=0;whiteSpace=wrap;html=1;" vertex="1" parent="1">
          <mxGeometry x="380" y="680" width="40" height="80" as="geometry" />
        </mxCell>
        <mxCell id="TVwda_yAYKdPDHhmBfI9-38" style="edgeStyle=orthogonalEdgeStyle;rounded=0;orthogonalLoop=1;jettySize=auto;html=1;exitX=0.5;exitY=0;exitDx=0;exitDy=0;entryX=0.5;entryY=1;entryDx=0;entryDy=0;" edge="1" source="TVwda_yAYKdPDHhmBfI9-40" target="TVwda_yAYKdPDHhmBfI9-44" parent="1">
          <mxGeometry relative="1" as="geometry" />
        </mxCell>
        <mxCell id="TVwda_yAYKdPDHhmBfI9-39" style="edgeStyle=orthogonalEdgeStyle;rounded=0;orthogonalLoop=1;jettySize=auto;html=1;exitX=0.5;exitY=0;exitDx=0;exitDy=0;entryX=0.5;entryY=1;entryDx=0;entryDy=0;" edge="1" source="TVwda_yAYKdPDHhmBfI9-40" target="TVwda_yAYKdPDHhmBfI9-42" parent="1">
          <mxGeometry relative="1" as="geometry" />
        </mxCell>
        <mxCell id="TVwda_yAYKdPDHhmBfI9-40" value="FORK" style="rounded=0;whiteSpace=wrap;html=1;" vertex="1" parent="1">
          <mxGeometry x="580" y="1000" width="80" height="40" as="geometry" />
        </mxCell>
        <mxCell id="TVwda_yAYKdPDHhmBfI9-41" style="edgeStyle=orthogonalEdgeStyle;rounded=0;orthogonalLoop=1;jettySize=auto;html=1;exitX=0.5;exitY=0;exitDx=0;exitDy=0;entryX=0.5;entryY=1;entryDx=0;entryDy=0;" edge="1" source="TVwda_yAYKdPDHhmBfI9-42" target="TVwda_yAYKdPDHhmBfI9-46" parent="1">
          <mxGeometry relative="1" as="geometry" />
        </mxCell>
        <mxCell id="TVwda_yAYKdPDHhmBfI9-42" value="DE&lt;br&gt;LAY" style="rounded=0;whiteSpace=wrap;html=1;" vertex="1" parent="1">
          <mxGeometry x="660" y="880" width="40" height="80" as="geometry" />
        </mxCell>
        <mxCell id="TVwda_yAYKdPDHhmBfI9-43" style="edgeStyle=orthogonalEdgeStyle;rounded=0;orthogonalLoop=1;jettySize=auto;html=1;exitX=0.5;exitY=0;exitDx=0;exitDy=0;entryX=0.5;entryY=1;entryDx=0;entryDy=0;" edge="1" source="TVwda_yAYKdPDHhmBfI9-44" target="TVwda_yAYKdPDHhmBfI9-46" parent="1">
          <mxGeometry relative="1" as="geometry" />
        </mxCell>
        <mxCell id="TVwda_yAYKdPDHhmBfI9-44" value="FIFO" style="rounded=0;whiteSpace=wrap;html=1;" vertex="1" parent="1">
          <mxGeometry x="540" y="880" width="40" height="80" as="geometry" />
        </mxCell>
        <mxCell id="TVwda_yAYKdPDHhmBfI9-45" style="edgeStyle=orthogonalEdgeStyle;rounded=0;orthogonalLoop=1;jettySize=auto;html=1;exitX=0.5;exitY=0;exitDx=0;exitDy=0;entryX=0.5;entryY=1;entryDx=0;entryDy=0;" edge="1" source="TVwda_yAYKdPDHhmBfI9-46" target="TVwda_yAYKdPDHhmBfI9-47" parent="1">
          <mxGeometry relative="1" as="geometry" />
        </mxCell>
        <mxCell id="TVwda_yAYKdPDHhmBfI9-46" value="JOIN" style="rounded=0;whiteSpace=wrap;html=1;" vertex="1" parent="1">
          <mxGeometry x="580" y="800" width="80" height="40" as="geometry" />
        </mxCell>
        <mxCell id="TVwda_yAYKdPDHhmBfI9-92" style="edgeStyle=orthogonalEdgeStyle;rounded=0;orthogonalLoop=1;jettySize=auto;html=1;exitX=0.5;exitY=0;exitDx=0;exitDy=0;entryX=0.5;entryY=1;entryDx=0;entryDy=0;" edge="1" parent="1" source="TVwda_yAYKdPDHhmBfI9-47" target="TVwda_yAYKdPDHhmBfI9-84">
          <mxGeometry relative="1" as="geometry" />
        </mxCell>
        <mxCell id="TVwda_yAYKdPDHhmBfI9-47" value="空间&lt;br&gt;差分&lt;br&gt;对应&lt;br&gt;处理" style="rounded=0;whiteSpace=wrap;html=1;" vertex="1" parent="1">
          <mxGeometry x="600" y="680" width="40" height="80" as="geometry" />
        </mxCell>
        <mxCell id="TVwda_yAYKdPDHhmBfI9-71" style="edgeStyle=orthogonalEdgeStyle;rounded=0;orthogonalLoop=1;jettySize=auto;html=1;exitX=0.5;exitY=0;exitDx=0;exitDy=0;entryX=0.5;entryY=1;entryDx=0;entryDy=0;" edge="1" source="TVwda_yAYKdPDHhmBfI9-73" target="TVwda_yAYKdPDHhmBfI9-77" parent="1">
          <mxGeometry relative="1" as="geometry" />
        </mxCell>
        <mxCell id="TVwda_yAYKdPDHhmBfI9-72" style="edgeStyle=orthogonalEdgeStyle;rounded=0;orthogonalLoop=1;jettySize=auto;html=1;exitX=0.5;exitY=0;exitDx=0;exitDy=0;entryX=0.5;entryY=1;entryDx=0;entryDy=0;" edge="1" source="TVwda_yAYKdPDHhmBfI9-73" target="TVwda_yAYKdPDHhmBfI9-75" parent="1">
          <mxGeometry relative="1" as="geometry" />
        </mxCell>
        <mxCell id="TVwda_yAYKdPDHhmBfI9-73" value="FORK" style="rounded=0;whiteSpace=wrap;html=1;" vertex="1" parent="1">
          <mxGeometry x="360" y="600" width="80" height="40" as="geometry" />
        </mxCell>
        <mxCell id="TVwda_yAYKdPDHhmBfI9-74" style="edgeStyle=orthogonalEdgeStyle;rounded=0;orthogonalLoop=1;jettySize=auto;html=1;exitX=0.5;exitY=0;exitDx=0;exitDy=0;entryX=0.5;entryY=1;entryDx=0;entryDy=0;" edge="1" source="TVwda_yAYKdPDHhmBfI9-75" target="TVwda_yAYKdPDHhmBfI9-79" parent="1">
          <mxGeometry relative="1" as="geometry" />
        </mxCell>
        <mxCell id="TVwda_yAYKdPDHhmBfI9-75" value="DE&lt;br&gt;LAY" style="rounded=0;whiteSpace=wrap;html=1;" vertex="1" parent="1">
          <mxGeometry x="440" y="480" width="40" height="80" as="geometry" />
        </mxCell>
        <mxCell id="TVwda_yAYKdPDHhmBfI9-76" style="edgeStyle=orthogonalEdgeStyle;rounded=0;orthogonalLoop=1;jettySize=auto;html=1;exitX=0.5;exitY=0;exitDx=0;exitDy=0;entryX=0.5;entryY=1;entryDx=0;entryDy=0;" edge="1" source="TVwda_yAYKdPDHhmBfI9-77" target="TVwda_yAYKdPDHhmBfI9-79" parent="1">
          <mxGeometry relative="1" as="geometry" />
        </mxCell>
        <mxCell id="TVwda_yAYKdPDHhmBfI9-77" value="FIFO" style="rounded=0;whiteSpace=wrap;html=1;" vertex="1" parent="1">
          <mxGeometry x="320" y="480" width="40" height="80" as="geometry" />
        </mxCell>
        <mxCell id="TVwda_yAYKdPDHhmBfI9-78" style="edgeStyle=orthogonalEdgeStyle;rounded=0;orthogonalLoop=1;jettySize=auto;html=1;exitX=0.5;exitY=0;exitDx=0;exitDy=0;entryX=0.5;entryY=1;entryDx=0;entryDy=0;" edge="1" source="TVwda_yAYKdPDHhmBfI9-79" target="TVwda_yAYKdPDHhmBfI9-80" parent="1">
          <mxGeometry relative="1" as="geometry" />
        </mxCell>
        <mxCell id="TVwda_yAYKdPDHhmBfI9-79" value="JOIN" style="rounded=0;whiteSpace=wrap;html=1;" vertex="1" parent="1">
          <mxGeometry x="360" y="400" width="80" height="40" as="geometry" />
        </mxCell>
        <mxCell id="TVwda_yAYKdPDHhmBfI9-96" style="edgeStyle=orthogonalEdgeStyle;rounded=0;orthogonalLoop=1;jettySize=auto;html=1;exitX=0.5;exitY=0;exitDx=0;exitDy=0;entryX=0.5;entryY=1;entryDx=0;entryDy=0;" edge="1" parent="1" source="TVwda_yAYKdPDHhmBfI9-80" target="TVwda_yAYKdPDHhmBfI9-93">
          <mxGeometry relative="1" as="geometry" />
        </mxCell>
        <mxCell id="TVwda_yAYKdPDHhmBfI9-80" value="时间&lt;br&gt;差分" style="rounded=0;whiteSpace=wrap;html=1;" vertex="1" parent="1">
          <mxGeometry x="380" y="280" width="40" height="80" as="geometry" />
        </mxCell>
        <mxCell id="TVwda_yAYKdPDHhmBfI9-82" style="edgeStyle=orthogonalEdgeStyle;rounded=0;orthogonalLoop=1;jettySize=auto;html=1;exitX=0.5;exitY=0;exitDx=0;exitDy=0;entryX=0.5;entryY=1;entryDx=0;entryDy=0;" edge="1" source="TVwda_yAYKdPDHhmBfI9-84" target="TVwda_yAYKdPDHhmBfI9-88" parent="1">
          <mxGeometry relative="1" as="geometry" />
        </mxCell>
        <mxCell id="TVwda_yAYKdPDHhmBfI9-83" style="edgeStyle=orthogonalEdgeStyle;rounded=0;orthogonalLoop=1;jettySize=auto;html=1;exitX=0.5;exitY=0;exitDx=0;exitDy=0;entryX=0.5;entryY=1;entryDx=0;entryDy=0;" edge="1" source="TVwda_yAYKdPDHhmBfI9-84" target="TVwda_yAYKdPDHhmBfI9-86" parent="1">
          <mxGeometry relative="1" as="geometry" />
        </mxCell>
        <mxCell id="TVwda_yAYKdPDHhmBfI9-84" value="FORK" style="rounded=0;whiteSpace=wrap;html=1;" vertex="1" parent="1">
          <mxGeometry x="580" y="600" width="80" height="40" as="geometry" />
        </mxCell>
        <mxCell id="TVwda_yAYKdPDHhmBfI9-85" style="edgeStyle=orthogonalEdgeStyle;rounded=0;orthogonalLoop=1;jettySize=auto;html=1;exitX=0.5;exitY=0;exitDx=0;exitDy=0;entryX=0.5;entryY=1;entryDx=0;entryDy=0;" edge="1" source="TVwda_yAYKdPDHhmBfI9-86" target="TVwda_yAYKdPDHhmBfI9-90" parent="1">
          <mxGeometry relative="1" as="geometry" />
        </mxCell>
        <mxCell id="TVwda_yAYKdPDHhmBfI9-86" value="DE&lt;br&gt;LAY" style="rounded=0;whiteSpace=wrap;html=1;" vertex="1" parent="1">
          <mxGeometry x="660" y="480" width="40" height="80" as="geometry" />
        </mxCell>
        <mxCell id="TVwda_yAYKdPDHhmBfI9-87" style="edgeStyle=orthogonalEdgeStyle;rounded=0;orthogonalLoop=1;jettySize=auto;html=1;exitX=0.5;exitY=0;exitDx=0;exitDy=0;entryX=0.5;entryY=1;entryDx=0;entryDy=0;" edge="1" source="TVwda_yAYKdPDHhmBfI9-88" target="TVwda_yAYKdPDHhmBfI9-90" parent="1">
          <mxGeometry relative="1" as="geometry" />
        </mxCell>
        <mxCell id="TVwda_yAYKdPDHhmBfI9-88" value="FIFO" style="rounded=0;whiteSpace=wrap;html=1;" vertex="1" parent="1">
          <mxGeometry x="540" y="480" width="40" height="80" as="geometry" />
        </mxCell>
        <mxCell id="TVwda_yAYKdPDHhmBfI9-89" style="edgeStyle=orthogonalEdgeStyle;rounded=0;orthogonalLoop=1;jettySize=auto;html=1;exitX=0.5;exitY=0;exitDx=0;exitDy=0;entryX=0.5;entryY=1;entryDx=0;entryDy=0;" edge="1" source="TVwda_yAYKdPDHhmBfI9-90" target="TVwda_yAYKdPDHhmBfI9-91" parent="1">
          <mxGeometry relative="1" as="geometry" />
        </mxCell>
        <mxCell id="TVwda_yAYKdPDHhmBfI9-90" value="JOIN" style="rounded=0;whiteSpace=wrap;html=1;" vertex="1" parent="1">
          <mxGeometry x="580" y="400" width="80" height="40" as="geometry" />
        </mxCell>
        <mxCell id="TVwda_yAYKdPDHhmBfI9-99" style="edgeStyle=orthogonalEdgeStyle;rounded=0;orthogonalLoop=1;jettySize=auto;html=1;exitX=0.5;exitY=0;exitDx=0;exitDy=0;entryX=0.5;entryY=1;entryDx=0;entryDy=0;" edge="1" parent="1" source="TVwda_yAYKdPDHhmBfI9-91" target="TVwda_yAYKdPDHhmBfI9-94">
          <mxGeometry relative="1" as="geometry" />
        </mxCell>
        <mxCell id="TVwda_yAYKdPDHhmBfI9-91" value="时间&lt;br&gt;差分&lt;br&gt;对应&lt;br&gt;处理" style="rounded=0;whiteSpace=wrap;html=1;" vertex="1" parent="1">
          <mxGeometry x="600" y="280" width="40" height="80" as="geometry" />
        </mxCell>
        <mxCell id="TVwda_yAYKdPDHhmBfI9-97" style="edgeStyle=orthogonalEdgeStyle;rounded=0;orthogonalLoop=1;jettySize=auto;html=1;exitX=0.5;exitY=0;exitDx=0;exitDy=0;entryX=0.5;entryY=1;entryDx=0;entryDy=0;" edge="1" parent="1" source="TVwda_yAYKdPDHhmBfI9-93" target="TVwda_yAYKdPDHhmBfI9-95">
          <mxGeometry relative="1" as="geometry" />
        </mxCell>
        <mxCell id="TVwda_yAYKdPDHhmBfI9-93" value="FIFO" style="rounded=0;whiteSpace=wrap;html=1;" vertex="1" parent="1">
          <mxGeometry x="380" y="160" width="40" height="80" as="geometry" />
        </mxCell>
        <mxCell id="TVwda_yAYKdPDHhmBfI9-98" style="edgeStyle=orthogonalEdgeStyle;rounded=0;orthogonalLoop=1;jettySize=auto;html=1;exitX=0.5;exitY=0;exitDx=0;exitDy=0;entryX=0.5;entryY=1;entryDx=0;entryDy=0;" edge="1" parent="1" source="TVwda_yAYKdPDHhmBfI9-94" target="TVwda_yAYKdPDHhmBfI9-95">
          <mxGeometry relative="1" as="geometry" />
        </mxCell>
        <mxCell id="TVwda_yAYKdPDHhmBfI9-94" value="FIFO" style="rounded=0;whiteSpace=wrap;html=1;" vertex="1" parent="1">
          <mxGeometry x="600" y="160" width="40" height="80" as="geometry" />
        </mxCell>
        <mxCell id="TVwda_yAYKdPDHhmBfI9-100" value="strain rate in phase&lt;br&gt;&amp;amp; &lt;br&gt;magnitude for determination" style="edgeStyle=orthogonalEdgeStyle;rounded=0;orthogonalLoop=1;jettySize=auto;html=1;exitX=0.5;exitY=0;exitDx=0;exitDy=0;" edge="1" parent="1" source="TVwda_yAYKdPDHhmBfI9-95">
          <mxGeometry relative="1" as="geometry">
            <mxPoint x="499.72413793103465" as="targetPoint" />
          </mxGeometry>
        </mxCell>
        <mxCell id="TVwda_yAYKdPDHhmBfI9-95" value="JOIN" style="rounded=0;whiteSpace=wrap;html=1;" vertex="1" parent="1">
          <mxGeometry x="460" y="80" width="80" height="40" as="geometry" />
        </mxCell>
      </root>
    </mxGraphModel>
  </diagram>
</mxfile>
